<svg xmlns="http://www.w3.org/2000/svg" width="512" height="512" fill="none" viewBox="0 0 512 512"><style>circle,path{fill:&quot;#0F172A&quot;}@media (prefers-color-scheme:dark){circle,path{fill:#fff}}</style><path fill="currentColor" d="M276.17 415.806C269.188 415.806 263.758 414.255 259.103 411.927L197.043 380.121C193.164 377.794 191.612 373.139 193.94 370.036C196.267 366.158 200.921 364.606 204.024 366.933L266.085 398.739C268.412 400.291 271.515 401.067 275.394 401.067C280.824 401.067 285.479 399.515 288.582 396.412C288.582 396.412 289.358 395.636 290.134 395.636C290.909 394.861 291.685 394.085 291.685 393.309V392.533C294.012 387.879 292.461 382.448 287.03 379.345L224.97 338.23C219.54 335.127 214.109 333.576 207.127 333.576L131.103 345.212C127.224 345.988 122.57 342.885 122.57 339.006C121.794 335.127 124.897 330.473 128.776 330.473L205.576 318.836H206.352C215.661 318.836 224.97 321.164 232.727 326.594L295.564 366.158C307.2 373.915 311.855 387.103 306.424 398.739C304.873 402.618 302.546 405.721 299.443 408.048C294.012 412.703 285.479 415.806 276.17 415.806Z"/><path fill="currentColor" d="M283.927 496.485C277.721 496.485 271.515 495.709 265.309 494.158L145.067 458.473C141.188 456.921 138.861 453.042 139.636 449.164C140.412 445.285 145.067 442.958 148.946 443.733L269.188 479.418C279.273 482.521 290.133 481.745 299.442 478.642L319.612 469.333L462.352 407.273C467.782 405.721 472.436 401.842 472.436 395.636C472.436 388.655 464.679 383.224 455.37 383.224H452.267L437.527 385.552L295.564 408.824C290.909 409.6 287.03 406.497 287.03 402.618C286.255 398.739 289.358 394.085 293.236 394.085L450.715 368.485H451.491H455.37C473.212 368.485 487.952 380.897 487.952 396.412C487.952 408.048 480.194 418.133 467.782 422.012L446.061 432.097L304.873 493.382C298.667 494.933 291.685 496.485 283.927 496.485Z"/><path fill="currentColor" d="M69.0427 95.4182C65.9396 95.4182 62.8366 93.8667 62.0609 90.7636C60.5093 86.8848 62.0609 82.2303 65.9396 80.6788L186.182 28.703C190.061 27.1515 194.715 28.703 196.267 32.5818C197.818 36.4606 196.267 41.1151 192.388 42.6667L72.1457 94.6424C71.3699 95.4182 69.8184 95.4182 69.0427 95.4182Z"/><path fill="currentColor" d="M135.758 307.976C132.655 307.976 128.776 307.2 125.673 305.649C121.794 304.097 119.467 301.77 117.14 299.442C110.934 293.236 107.831 284.703 107.831 275.394C107.831 268.412 109.382 262.982 111.709 258.327L143.515 197.042C145.843 193.164 150.497 191.612 153.6 193.939C157.479 196.267 159.031 200.921 156.703 204.024L124.897 266.085C123.346 268.412 122.57 271.515 122.57 275.394C122.57 280.824 124.121 285.479 127.225 288.582L130.328 291.685H131.103C135.758 294.012 141.188 292.461 144.291 287.03L183.855 224.194C186.958 218.764 188.509 213.333 188.509 206.352L174.546 117.915C173.77 114.036 176.873 109.382 180.752 109.382C184.631 108.606 189.285 111.709 189.285 115.588L203.249 204.8V206.352C203.249 215.661 200.921 224.97 195.491 232.727L158.255 294.788C153.6 303.321 145.067 307.976 135.758 307.976Z"/><path fill="currentColor" d="M127.224 487.952C116.364 487.952 105.503 479.418 101.624 467.782L94.6425 453.042L31.0304 304.873C26.3758 290.909 25.6001 276.17 30.2546 264.533L69.8182 131.879C71.3698 128 75.2485 125.673 79.1273 126.448C83.0061 128 85.3334 131.879 84.5576 135.758L44.994 269.188C41.891 277.721 41.891 289.358 45.7698 299.442L56.6304 323.491L116.364 462.352C118.691 468.558 123.346 472.436 128 472.436C134.206 472.436 140.412 465.455 140.412 455.37V451.491L115.588 296.339C114.812 292.461 117.915 287.806 121.794 287.806C125.673 287.03 130.327 290.133 130.327 294.012L137.309 336.679L155.152 449.164V450.715V455.37C155.152 473.212 142.739 487.952 127.224 487.952Z"/><path fill="currentColor" d="M305.649 193.939C296.34 193.939 287.031 191.612 279.273 186.182L216.437 146.618C204.8 138.861 200.146 125.673 205.576 114.036C207.128 110.158 209.455 107.83 211.782 105.503C217.988 99.297 226.521 96.1939 235.831 96.1939C242.812 96.1939 248.243 97.7454 252.897 100.073L314.182 131.879C318.061 134.206 319.612 138.861 317.285 141.964C314.958 145.842 310.303 147.394 307.2 145.067L245.14 113.261C242.812 111.709 239.709 110.933 235.831 110.933C230.4 110.933 225.746 112.485 222.643 115.588C221.091 117.139 220.315 117.915 219.54 118.691V119.467C217.212 124.121 218.764 129.552 224.194 132.655L287.031 172.218C292.461 175.321 298.667 176.873 304.873 176.873L381.673 165.236C386.328 164.461 390.206 167.564 390.206 171.442C390.982 175.321 387.879 179.976 384 179.976L306.425 191.612C306.425 193.939 306.425 193.939 305.649 193.939Z"/><path fill="currentColor" d="M69.0427 95.4182C65.9396 95.4182 62.8366 93.8667 62.0609 90.7636C60.5093 86.8848 62.0609 82.2303 65.9396 80.6788L186.182 28.703C190.061 27.1515 194.715 28.703 196.267 32.5818C197.818 36.4606 196.267 41.1151 192.388 42.6667L72.1457 94.6424C71.3699 95.4182 69.8184 95.4182 69.0427 95.4182Z"/><path fill="currentColor" d="M364.606 69.0424C363.83 69.0424 363.055 69.0424 362.279 69.0424L242.812 33.3576C234.279 30.2545 222.642 30.2545 212.558 34.1333L192.388 43.4424C188.509 44.9939 183.855 43.4424 182.303 39.5636C180.752 35.6848 182.303 31.0303 186.182 29.4788L207.127 20.1697C221.091 15.5151 235.83 14.7394 247.467 19.3939L366.158 55.0788C370.036 56.6303 372.364 60.5091 371.588 64.3879C370.812 66.7151 367.709 69.0424 364.606 69.0424Z"/><path fill="currentColor" d="M54.3033 143.515C45.7699 143.515 37.2366 140.412 31.0305 134.206C26.376 129.551 23.2729 123.345 23.2729 116.364C23.2729 105.503 31.8063 94.6424 43.4426 90.7636L65.9396 80.6788C69.8184 79.1273 74.473 80.6788 76.0245 84.5576C77.576 88.4364 76.0245 93.0909 72.1457 94.6424L48.873 104.727C42.6669 107.055 38.7881 111.709 38.7881 116.364C38.7881 118.691 40.3396 121.018 41.8911 123.345C44.9942 126.448 50.4245 128 55.8548 128H59.7336L74.473 125.673L214.885 103.176C219.54 102.4 223.418 105.503 224.194 109.382C224.97 113.261 221.867 117.915 217.988 118.691L185.406 124.121L61.2851 143.515H60.5093H56.6305C55.8548 143.515 55.079 143.515 54.3033 143.515Z"/><path fill="currentColor" d="M328.146 403.394C324.267 403.394 321.164 400.291 320.388 397.188L306.424 307.976C306.424 307.2 306.424 307.2 306.424 306.424C306.424 297.115 308.752 287.806 314.182 280.048L353.746 216.436C361.503 204.8 374.691 200.145 387.103 205.576C397.188 211.006 404.17 222.642 404.17 235.83C404.17 242.812 402.618 248.242 400.291 252.897L368.485 314.182C365.382 318.061 360.727 319.612 356.849 318.061C352.97 315.733 351.418 311.079 353.746 307.976L385.552 245.915C387.103 243.588 387.879 240.485 387.879 236.606C387.879 229.624 384.776 222.642 380.121 220.315C375.467 217.988 370.036 220.315 366.933 224.97L327.37 288.582C324.267 294.012 322.715 300.218 322.715 306.424L336.679 394.861C337.455 398.739 334.352 403.394 330.473 403.394C328.921 403.394 328.146 403.394 328.146 403.394Z"/><path fill="currentColor" d="M435.976 386.327C435.2 386.327 434.424 386.327 433.649 386.327C429.77 384.776 427.443 380.897 428.218 377.018L467.782 243.588C470.885 235.055 470.885 223.418 467.006 213.333L456.146 189.285L395.637 49.6485C394.085 42.6667 389.43 38.7879 384.776 38.7879C377.794 38.7879 372.364 46.5455 372.364 56.6303V60.5091L397.188 215.661C397.964 219.539 394.861 224.194 390.982 224.194C387.103 224.97 382.449 221.867 382.449 217.988L375.467 175.321L356.849 62.8364C356.849 62.0606 356.849 62.0606 356.849 61.2848V56.6303C356.849 38.0121 369.261 23.2727 384.776 23.2727C395.637 23.2727 406.497 31.8061 410.376 43.4424L417.358 58.9576L481.746 207.127C486.4 221.091 487.176 235.83 482.521 247.467L442.958 380.121C442.182 384 439.079 386.327 435.976 386.327Z"/><circle cx="256" cy="256" r="45" stroke="currentColor" stroke-width="12"/></svg>