<svg width="34" height="17" viewBox="0 0 34 17" fill="none" xmlns="http://www.w3.org/2000/svg">
<rect width="33.8856" height="16.892" rx="2" fill="#BFDBFE"/>
<path d="M6.5416 12.88C6.1096 12.88 5.6816 12.812 5.2576 12.676C4.8416 12.532 4.4536 12.336 4.0936 12.088C4.0536 12.064 4.0256 12.024 4.0096 11.968C3.9936 11.904 3.9976 11.848 4.0216 11.8L4.4416 11.044C4.4896 10.948 4.5656 10.9 4.6696 10.9C4.7336 10.9 4.7936 10.916 4.8496 10.948C5.4496 11.324 6.0096 11.512 6.5296 11.512C6.9536 11.512 7.2856 11.412 7.5256 11.212C7.7736 11.004 7.8976 10.736 7.8976 10.408C7.8976 10.192 7.8376 10.012 7.7176 9.868C7.5976 9.716 7.4376 9.588 7.2376 9.484C7.0376 9.38 6.7456 9.252 6.3616 9.1L6.0136 8.956C5.4696 8.724 5.0096 8.428 4.6336 8.068C4.2656 7.708 4.0816 7.18 4.0816 6.484C4.0816 5.996 4.1896 5.564 4.4056 5.188C4.6296 4.812 4.9376 4.52 5.3296 4.312C5.7216 4.104 6.1736 4 6.6856 4C7.1096 4 7.5296 4.072 7.9456 4.216C8.3696 4.352 8.7496 4.544 9.0856 4.792C9.1256 4.816 9.1536 4.86 9.1696 4.924C9.1856 4.98 9.1816 5.032 9.1576 5.08L8.7616 5.836C8.7136 5.932 8.6376 5.98 8.5336 5.98C8.4696 5.98 8.4096 5.964 8.3536 5.932C8.0416 5.732 7.7416 5.588 7.4536 5.5C7.1736 5.412 6.9216 5.368 6.6976 5.368C6.3376 5.368 6.0536 5.468 5.8456 5.668C5.6376 5.86 5.5336 6.108 5.5336 6.412C5.5336 6.724 5.6456 6.984 5.8696 7.192C6.1016 7.392 6.4696 7.596 6.9736 7.804C7.0456 7.828 7.3176 7.94 7.7896 8.14C8.2696 8.332 8.6496 8.616 8.9296 8.992C9.2096 9.368 9.3496 9.812 9.3496 10.324C9.3496 10.82 9.2296 11.264 8.9896 11.656C8.7576 12.04 8.4296 12.34 8.0056 12.556C7.5816 12.772 7.0936 12.88 6.5416 12.88Z" fill="#1F2937"/>
<path d="M12.3604 12.736C12.2884 12.736 12.2284 12.712 12.1804 12.664C12.1324 12.616 12.1084 12.556 12.1084 12.484V4.672C12.1084 4.528 12.1564 4.408 12.2524 4.312C12.3564 4.208 12.4804 4.156 12.6244 4.156H14.8684C15.3564 4.156 15.8044 4.272 16.2124 4.504C16.6204 4.736 16.9444 5.052 17.1844 5.452C17.4244 5.852 17.5444 6.288 17.5444 6.76C17.5444 7.336 17.3724 7.852 17.0284 8.308C16.6844 8.756 16.2364 9.064 15.6844 9.232L17.6764 12.316C17.7084 12.372 17.7244 12.428 17.7244 12.484C17.7244 12.556 17.6964 12.616 17.6404 12.664C17.5924 12.712 17.5284 12.736 17.4484 12.736H16.4644C16.3284 12.736 16.2244 12.68 16.1524 12.568L14.1604 9.364H13.5724V12.484C13.5724 12.556 13.5484 12.616 13.5004 12.664C13.4524 12.712 13.3924 12.736 13.3204 12.736H12.3604ZM14.7964 7.984C15.1644 7.984 15.4644 7.872 15.6964 7.648C15.9364 7.416 16.0564 7.124 16.0564 6.772C16.0564 6.412 15.9364 6.116 15.6964 5.884C15.4644 5.652 15.1644 5.536 14.7964 5.536H13.5724V7.984H14.7964Z" fill="#1F2937"/>
<path d="M23.3257 12.892C22.7657 12.892 22.2457 12.752 21.7657 12.472C21.2937 12.184 20.9177 11.8 20.6377 11.32C20.3577 10.832 20.2177 10.3 20.2177 9.724V7.168C20.2177 6.592 20.3577 6.064 20.6377 5.584C20.9177 5.096 21.2937 4.712 21.7657 4.432C22.2457 4.144 22.7657 4 23.3257 4C23.8137 4 24.2697 4.092 24.6937 4.276C25.1177 4.452 25.4777 4.712 25.7737 5.056C25.8217 5.112 25.8457 5.18 25.8457 5.26C25.8457 5.34 25.8137 5.42 25.7497 5.5L25.2217 6.052C25.1577 6.116 25.0937 6.148 25.0297 6.148C24.9497 6.148 24.8777 6.112 24.8137 6.04C24.4297 5.616 23.9377 5.404 23.3377 5.404C23.0417 5.404 22.7657 5.484 22.5097 5.644C22.2617 5.804 22.0617 6.02 21.9097 6.292C21.7577 6.564 21.6817 6.856 21.6817 7.168V9.724C21.6817 10.036 21.7577 10.328 21.9097 10.6C22.0617 10.872 22.2617 11.088 22.5097 11.248C22.7657 11.408 23.0417 11.488 23.3377 11.488C23.9377 11.488 24.4297 11.276 24.8137 10.852C24.8777 10.78 24.9457 10.744 25.0177 10.744C25.0897 10.744 25.1577 10.776 25.2217 10.84L25.7497 11.392C25.8217 11.464 25.8577 11.544 25.8577 11.632C25.8577 11.696 25.8337 11.76 25.7857 11.824C25.4817 12.168 25.1177 12.432 24.6937 12.616C24.2697 12.8 23.8137 12.892 23.3257 12.892Z" fill="#1F2937"/>
<path d="M28.3976 12.822C27.9656 12.822 27.5976 12.678 27.2936 12.39C27.0056 12.086 26.8616 11.726 26.8616 11.31C26.8616 10.894 27.0056 10.542 27.2936 10.254C27.5976 9.95 27.9656 9.798 28.3976 9.798C28.8136 9.798 29.1656 9.95 29.4536 10.254C29.7416 10.542 29.8856 10.894 29.8856 11.31C29.8856 11.726 29.7416 12.086 29.4536 12.39C29.1656 12.678 28.8136 12.822 28.3976 12.822Z" fill="#1F2937"/>
</svg>
