<svg width="80" height="45" viewBox="0 0 80 45" fill="none" xmlns="http://www.w3.org/2000/svg">
<rect width="80" height="45" fill="#252A34"/>
<rect width="5" height="37" transform="translate(4 4)" fill="#252A34"/>
<path d="M6.40068 10.592C6.12456 10.592 5.851 10.5486 5.57999 10.4616C5.3141 10.3696 5.0661 10.2443 4.836 10.0858C4.81043 10.0705 4.79254 10.0449 4.78231 10.0091C4.77208 9.96821 4.77464 9.93242 4.78998 9.90174L5.05843 9.41853C5.08911 9.35717 5.13769 9.32649 5.20416 9.32649C5.24507 9.32649 5.28342 9.33672 5.31921 9.35717C5.70271 9.5975 6.06064 9.71766 6.39301 9.71766C6.66402 9.71766 6.87622 9.65374 7.02962 9.52591C7.18813 9.39296 7.26739 9.22167 7.26739 9.01202C7.26739 8.87396 7.22904 8.75891 7.15234 8.66687C7.07564 8.56972 6.97337 8.4879 6.84554 8.42143C6.71771 8.35496 6.53107 8.27314 6.28563 8.17599L6.0632 8.08395C5.71549 7.93566 5.42148 7.74647 5.18115 7.51637C4.94594 7.28627 4.82833 6.94879 4.82833 6.50393C4.82833 6.19202 4.89736 5.9159 5.03542 5.67557C5.17859 5.43524 5.37546 5.24861 5.62601 5.11566C5.87656 4.98271 6.16547 4.91624 6.49272 4.91624C6.76373 4.91624 7.03218 4.96226 7.29807 5.0543C7.56908 5.14123 7.81196 5.26395 8.02672 5.42246C8.05229 5.4378 8.07018 5.46592 8.08041 5.50683C8.09064 5.54262 8.08808 5.57586 8.07274 5.60654L7.81963 6.08975C7.78895 6.15111 7.74037 6.18179 7.6739 6.18179C7.63299 6.18179 7.59464 6.17156 7.55885 6.15111C7.35943 6.02328 7.16768 5.93124 6.9836 5.87499C6.80463 5.81874 6.64356 5.79062 6.50039 5.79062C6.27029 5.79062 6.08877 5.85454 5.95582 5.98237C5.82287 6.10509 5.7564 6.2636 5.7564 6.45791C5.7564 6.65733 5.82799 6.82351 5.97116 6.95646C6.11945 7.08429 6.35466 7.21468 6.6768 7.34763C6.72282 7.36297 6.89667 7.43456 7.19836 7.56239C7.50516 7.68511 7.74804 7.86663 7.92701 8.10696C8.10598 8.34729 8.19546 8.63108 8.19546 8.95833C8.19546 9.27536 8.11876 9.55915 7.96536 9.8097C7.81707 10.0551 7.60743 10.2469 7.33642 10.3849C7.06541 10.523 6.7535 10.592 6.40068 10.592Z" fill="white"/>
<path d="M4.98604 24.5C4.94002 24.5 4.90167 24.4847 4.87099 24.454C4.84031 24.4233 4.82497 24.3849 4.82497 24.3389V19.3458C4.82497 19.2537 4.85565 19.177 4.91701 19.1157C4.98349 19.0492 5.06274 19.0159 5.15478 19.0159H6.58907C6.90099 19.0159 7.18733 19.0901 7.44811 19.2384C7.70889 19.3867 7.91598 19.5886 8.06938 19.8443C8.22278 20.1 8.29948 20.3787 8.29948 20.6803C8.29948 21.0485 8.18955 21.3783 7.96967 21.6698C7.7498 21.9561 7.46345 22.153 7.11063 22.2604L8.38385 24.2315C8.40431 24.2673 8.41453 24.3031 8.41453 24.3389C8.41453 24.3849 8.39664 24.4233 8.36084 24.454C8.33016 24.4847 8.28926 24.5 8.23812 24.5H7.60918C7.52226 24.5 7.45578 24.4642 7.40976 24.3926L6.13654 22.3447H5.76071V24.3389C5.76071 24.3849 5.74537 24.4233 5.71469 24.454C5.68401 24.4847 5.64566 24.5 5.59964 24.5H4.98604ZM6.54305 21.4627C6.77827 21.4627 6.97002 21.3911 7.1183 21.2479C7.2717 21.0996 7.3484 20.913 7.3484 20.688C7.3484 20.4579 7.2717 20.2687 7.1183 20.1204C6.97002 19.9721 6.77827 19.898 6.54305 19.898H5.76071V21.4627H6.54305Z" fill="white"/>
<path d="M6.72606 38.5997C6.36812 38.5997 6.03576 38.5102 5.72896 38.3313C5.42727 38.1472 5.18694 37.9017 5.00798 37.5949C4.82901 37.283 4.73953 36.943 4.73953 36.5748V34.9411C4.73953 34.573 4.82901 34.2355 5.00798 33.9287C5.18694 33.6168 5.42727 33.3713 5.72896 33.1924C6.03576 33.0083 6.36812 32.9162 6.72606 32.9162C7.03797 32.9162 7.32943 32.975 7.60044 33.0926C7.87144 33.2051 8.10154 33.3713 8.29074 33.5912C8.32142 33.627 8.33676 33.6705 8.33676 33.7216C8.33676 33.7727 8.3163 33.8239 8.2754 33.875L7.93792 34.2278C7.89701 34.2687 7.8561 34.2892 7.8152 34.2892C7.76406 34.2892 7.71804 34.2662 7.67714 34.2201C7.4317 33.9491 7.11723 33.8136 6.73373 33.8136C6.54453 33.8136 6.36812 33.8648 6.2045 33.967C6.04598 34.0693 5.91815 34.2074 5.821 34.3812C5.72384 34.5551 5.67527 34.7417 5.67527 34.9411V36.5748C5.67527 36.7742 5.72384 36.9609 5.821 37.1347C5.91815 37.3086 6.04598 37.4467 6.2045 37.5489C6.36812 37.6512 6.54453 37.7023 6.73373 37.7023C7.11723 37.7023 7.4317 37.5668 7.67714 37.2958C7.71804 37.2498 7.76151 37.2268 7.80753 37.2268C7.85355 37.2268 7.89701 37.2472 7.93792 37.2881L8.2754 37.641C8.32142 37.687 8.34443 37.7381 8.34443 37.7944C8.34443 37.8353 8.32909 37.8762 8.29841 37.9171C8.1041 38.137 7.87144 38.3057 7.60044 38.4233C7.32943 38.5409 7.03797 38.5997 6.72606 38.5997Z" fill="white"/>
<rect x="13" y="4" width="63" height="9.66667" fill="#3B82F6"/>
<rect x="13" y="17.6667" width="63" height="9.66667" fill="#60A5FA"/>
<rect x="13" y="31.3333" width="63" height="9.66667" fill="#BFDBFE"/>
</svg>
