<svg width="108" height="58" viewBox="0 0 108 58" fill="none" xmlns="http://www.w3.org/2000/svg">
<rect width="108" height="58" fill="#252A34"/>
<rect x="4" y="4" width="100" height="14" fill="#64E1EF"/>
<rect x="4" y="22" width="37.5" height="14" fill="#EF74B1"/>
<path d="M46.8016 34.144C46.3696 34.144 45.9416 34.076 45.5176 33.94C45.1016 33.796 44.7136 33.6 44.3536 33.352C44.3136 33.328 44.2856 33.288 44.2696 33.232C44.2536 33.168 44.2576 33.112 44.2816 33.064L44.7016 32.308C44.7496 32.212 44.8256 32.164 44.9296 32.164C44.9936 32.164 45.0536 32.18 45.1096 32.212C45.7096 32.588 46.2696 32.776 46.7896 32.776C47.2136 32.776 47.5456 32.676 47.7856 32.476C48.0336 32.268 48.1576 32 48.1576 31.672C48.1576 31.456 48.0976 31.276 47.9776 31.132C47.8576 30.98 47.6976 30.852 47.4976 30.748C47.2976 30.644 47.0056 30.516 46.6216 30.364L46.2736 30.22C45.7296 29.988 45.2696 29.692 44.8936 29.332C44.5256 28.972 44.3416 28.444 44.3416 27.748C44.3416 27.26 44.4496 26.828 44.6656 26.452C44.8896 26.076 45.1976 25.784 45.5896 25.576C45.9816 25.368 46.4336 25.264 46.9456 25.264C47.3696 25.264 47.7896 25.336 48.2056 25.48C48.6296 25.616 49.0096 25.808 49.3456 26.056C49.3856 26.08 49.4136 26.124 49.4296 26.188C49.4456 26.244 49.4416 26.296 49.4176 26.344L49.0216 27.1C48.9736 27.196 48.8976 27.244 48.7936 27.244C48.7296 27.244 48.6696 27.228 48.6136 27.196C48.3016 26.996 48.0016 26.852 47.7136 26.764C47.4336 26.676 47.1816 26.632 46.9576 26.632C46.5976 26.632 46.3136 26.732 46.1056 26.932C45.8976 27.124 45.7936 27.372 45.7936 27.676C45.7936 27.988 45.9056 28.248 46.1296 28.456C46.3616 28.656 46.7296 28.86 47.2336 29.068C47.3056 29.092 47.5776 29.204 48.0496 29.404C48.5296 29.596 48.9096 29.88 49.1896 30.256C49.4696 30.632 49.6096 31.076 49.6096 31.588C49.6096 32.084 49.4896 32.528 49.2496 32.92C49.0176 33.304 48.6896 33.604 48.2656 33.82C47.8416 34.036 47.3536 34.144 46.8016 34.144ZM51.4204 34C51.3484 34 51.2884 33.976 51.2404 33.928C51.1924 33.88 51.1684 33.82 51.1684 33.748V25.936C51.1684 25.792 51.2164 25.672 51.3124 25.576C51.4164 25.472 51.5404 25.42 51.6844 25.42H53.9284C54.4164 25.42 54.8644 25.536 55.2724 25.768C55.6804 26 56.0044 26.316 56.2444 26.716C56.4844 27.116 56.6044 27.552 56.6044 28.024C56.6044 28.6 56.4324 29.116 56.0884 29.572C55.7444 30.02 55.2964 30.328 54.7444 30.496L56.7364 33.58C56.7684 33.636 56.7844 33.692 56.7844 33.748C56.7844 33.82 56.7564 33.88 56.7004 33.928C56.6524 33.976 56.5884 34 56.5084 34H55.5244C55.3884 34 55.2844 33.944 55.2124 33.832L53.2204 30.628H52.6324V33.748C52.6324 33.82 52.6084 33.88 52.5604 33.928C52.5124 33.976 52.4524 34 52.3804 34H51.4204ZM53.8564 29.248C54.2244 29.248 54.5244 29.136 54.7564 28.912C54.9964 28.68 55.1164 28.388 55.1164 28.036C55.1164 27.676 54.9964 27.38 54.7564 27.148C54.5244 26.916 54.2244 26.8 53.8564 26.8H52.6324V29.248H53.8564ZM61.1857 34.156C60.6257 34.156 60.1057 34.016 59.6257 33.736C59.1537 33.448 58.7777 33.064 58.4977 32.584C58.2177 32.096 58.0777 31.564 58.0777 30.988V28.432C58.0777 27.856 58.2177 27.328 58.4977 26.848C58.7777 26.36 59.1537 25.976 59.6257 25.696C60.1057 25.408 60.6257 25.264 61.1857 25.264C61.6737 25.264 62.1297 25.356 62.5537 25.54C62.9777 25.716 63.3377 25.976 63.6337 26.32C63.6817 26.376 63.7057 26.444 63.7057 26.524C63.7057 26.604 63.6737 26.684 63.6097 26.764L63.0817 27.316C63.0177 27.38 62.9537 27.412 62.8897 27.412C62.8097 27.412 62.7377 27.376 62.6737 27.304C62.2897 26.88 61.7977 26.668 61.1977 26.668C60.9017 26.668 60.6257 26.748 60.3697 26.908C60.1217 27.068 59.9217 27.284 59.7697 27.556C59.6177 27.828 59.5417 28.12 59.5417 28.432V30.988C59.5417 31.3 59.6177 31.592 59.7697 31.864C59.9217 32.136 60.1217 32.352 60.3697 32.512C60.6257 32.672 60.9017 32.752 61.1977 32.752C61.7977 32.752 62.2897 32.54 62.6737 32.116C62.7377 32.044 62.8057 32.008 62.8777 32.008C62.9497 32.008 63.0177 32.04 63.0817 32.104L63.6097 32.656C63.6817 32.728 63.7177 32.808 63.7177 32.896C63.7177 32.96 63.6937 33.024 63.6457 33.088C63.3417 33.432 62.9777 33.696 62.5537 33.88C62.1297 34.064 61.6737 34.156 61.1857 34.156Z" fill="#EEEEEE"/>
<rect x="66.5" y="22" width="37.5" height="14" fill="#EF74B1"/>
<rect x="4" y="40" width="100" height="14" fill="#F9D55F"/>
</svg>
